<svg width="275" height="170" viewBox="0 0 275 170" fill="none" xmlns="http://www.w3.org/2000/svg">
<path fill-rule="evenodd" clip-rule="evenodd" d="M132.411 17.1168C196.169 -4.50959 258.634 9.72507 271.928 48.9169C285.223 88.1087 244.313 137.412 180.551 159.039C116.793 180.665 54.3284 166.43 41.0338 127.239C27.7392 88.0467 68.6489 38.7432 132.411 17.1168Z" fill="#95B9FF"/>
<path fill-rule="evenodd" clip-rule="evenodd" d="M257.331 35.1978C265.123 32.5542 272.663 34.0192 274.171 38.4666C275.679 42.914 270.587 48.6642 262.795 51.3031C255.002 53.9467 247.463 52.4817 245.955 48.0343C244.447 43.5916 249.543 37.8415 257.331 35.1978Z" fill="#6699FF"/>
<path fill-rule="evenodd" clip-rule="evenodd" d="M245.912 25.4868C249.872 26.8468 252.306 30.2157 251.342 33.0169C250.383 35.818 246.394 36.9871 242.433 35.6271C238.472 34.2671 236.039 30.8981 237.003 28.097C237.962 25.3007 241.951 24.1315 245.912 25.4868Z" fill="#6699FF"/>
<path fill-rule="evenodd" clip-rule="evenodd" d="M258.314 25.4247C260.437 24.7042 262.59 25.3818 263.119 26.9422C263.649 28.5026 262.356 30.3494 260.227 31.0699C258.104 31.7905 255.952 31.1129 255.422 29.5525C254.897 27.992 256.19 26.1453 258.314 25.4247Z" fill="#6699FF"/>
<path fill-rule="evenodd" clip-rule="evenodd" d="M30.063 82.0438C26.9708 87.9705 21.7217 91.3395 18.3384 89.5739C14.9551 87.8082 14.7213 81.5713 17.8135 75.6494C20.9057 69.7226 26.1548 66.3537 29.5381 68.1193C32.9214 69.8849 33.1552 76.1218 30.063 82.0438Z" fill="#E6E6E6"/>
<path fill-rule="evenodd" clip-rule="evenodd" d="M17.2123 58.3942C20.3426 59.6253 22.1751 62.4121 21.3066 64.6263C20.4381 66.8405 17.1932 67.6374 14.0676 66.411C10.9372 65.1799 9.10476 62.393 9.97325 60.1789C10.8417 57.9647 14.0819 57.163 17.2123 58.3942Z" fill="#E6E6E6"/>
<path fill-rule="evenodd" clip-rule="evenodd" d="M24.2222 51.9713C25.0668 50.2105 26.799 49.28 28.0922 49.9003C29.3854 50.5207 29.7481 52.4533 28.9035 54.2141C28.0588 55.975 26.3266 56.9055 25.0334 56.2852C23.7402 55.6648 23.3728 53.7369 24.2222 51.9713Z" fill="#E6E6E6"/>
<path fill-rule="evenodd" clip-rule="evenodd" d="M106.266 11.4623C160.346 29.6577 214.746 -9.87772 231.749 53.5698C241.679 90.6334 166.411 103.432 122.328 109.125C78.2452 114.813 39.1536 95.014 35.0116 64.8984C30.8695 34.7828 52.1857 -6.73302 106.266 11.4623Z" fill="#E6E6E6"/>
<path fill-rule="evenodd" clip-rule="evenodd" d="M52.1714 16.9596L48.1582 33.2892L96.264 45.6532L93.5011 8.14111C94.6034 8.34153 95.7152 8.56104 96.8462 8.81873L97.1277 12.6315L122.758 18.6489L123.287 15.4756C124.38 15.633 125.473 15.781 126.561 15.9098L126.022 19.1452L151.599 21.178L152.167 16.6638C153.284 16.6256 154.396 16.5827 155.503 16.5349L154.873 21.5645L168.878 23.7071L169.733 15.8382C170.844 15.7857 171.952 15.7428 173.049 15.6998L167.39 67.9811L181.305 69.7849L186.277 15.6474C187.384 15.6951 188.477 15.7571 189.555 15.843L184.841 67.1794L187.012 67.6327L188.424 52.8732L212.713 60.3508L213.114 23.1679C214.231 23.9314 215.309 24.7761 216.359 25.6923L216.097 49.8048L230.059 47.9819C230.465 49.1892 230.851 50.4538 231.224 51.7518L216.054 53.7369L215.724 84.3965C214.665 85.055 213.568 85.6992 212.432 86.3291L212.532 76.9189L184.483 71.0781L184.139 74.8431L179.257 92.7188L181.987 98.0108C180.87 98.321 179.744 98.6216 178.608 98.9223L175.669 93.2294L180.913 74.0223L180.947 73.6788L166.97 71.8654L164.951 90.5093L149.137 87.9325L147.109 105.512C145.978 105.703 144.857 105.884 143.74 106.066L146.393 83.0699L146.107 67.0744L120.295 60.7898L119.045 104.243L123.688 105.737L134.43 107.488C130.216 108.099 126.155 108.647 122.333 109.139C122.18 109.158 122.032 109.172 121.88 109.191L104.901 103.723L105.522 110.098C104.41 110.079 103.307 110.05 102.21 110.003L101.527 102.988L77.4101 102.148L76.68 105.665C75.6111 105.336 74.5613 104.987 73.521 104.62L74.0602 102.034L66.4347 101.766C63.6813 100.507 61.0663 99.1131 58.5992 97.6004L74.8667 98.1635L77.5962 85.0503L58.8092 84.2343L55.3877 95.5056C54.4095 94.8232 53.4646 94.1217 52.5484 93.4011L57.1724 78.1835L53.9227 74.9815L60.3839 58.2654L43.0475 54.1902L37.9081 75.1103C37.0969 73.2445 36.4288 71.3214 35.9135 69.3506L47.7335 21.2401C49.0887 19.7083 50.5776 18.2815 52.1714 16.9596ZM59.964 80.3738L79.7197 81.2327L99.4135 81.2614L98.0392 67.0983L63.6718 59.0194L57.9359 73.8649L61.0186 76.9046L59.964 80.3738ZM99.7905 85.1553L80.9414 85.1266L78.2071 98.2685L101.141 99.0654L99.7905 85.1553ZM61.7725 54.6006L66.6304 42.0266L47.2372 37.0447L43.9542 50.4156L61.7725 54.6006ZM69.9087 42.8712L65.0747 55.3784L97.6431 63.0326L97.2566 59.0433L97.2518 58.9908L96.5694 49.7237L69.9087 42.8712ZM97.4284 16.6733L100.521 58.652L101.995 73.8362L116.621 74.428L117.275 51.6611L122.128 22.4712L97.4284 16.6733ZM125.382 22.9913L120.534 52.1669L120.4 56.8291L146.336 63.1423L151.113 25.0385L125.382 22.9913ZM154.386 25.4107L153.017 36.3241L167.189 39.2636L168.459 27.5629L154.386 25.4107ZM152.535 40.1846L149.347 65.619L149.662 83.3037L149.576 84.0577L162.121 86.1001L166.774 43.1384L152.535 40.1846ZM190.247 68.3056L212.575 72.9534L212.666 64.3544L191.254 57.7644L190.247 68.3056ZM102.372 77.7444L104.486 99.5378L115.791 103.179L116.507 78.3171L102.372 77.7444Z" fill="white"/>
<path fill-rule="evenodd" clip-rule="evenodd" d="M56.805 149.667C27.8155 150.493 9.23364 151.767 9.23364 153.193C9.23364 154.792 32.5206 156.195 67.6325 156.997C63.6766 154.825 60.0547 152.377 56.805 149.667Z" fill="#E6E6E6"/>
<path fill-rule="evenodd" clip-rule="evenodd" d="M135.442 148.684C105.703 148.684 78.3742 149.052 56.8051 149.667C60.0547 152.382 63.6766 154.826 67.6278 156.997C87.2165 157.445 110.48 157.703 135.442 157.703C153.174 157.703 170.048 157.574 185.361 157.336C191.817 154.964 198.021 152.306 203.938 149.405C184.206 148.947 160.695 148.684 135.442 148.684Z" fill="#6699FF"/>
<path fill-rule="evenodd" clip-rule="evenodd" d="M74.1271 88.2328C62.579 92.0217 43.0046 94.0498 28.8081 98.3731C14.6116 102.692 9.23364 110.718 9.23364 113.009C9.23364 115.299 9.23364 123.326 9.23364 127.029C9.23364 130.732 13.9483 134.392 21.0489 138.491C28.1496 142.59 34.4485 141.755 38.0656 141.755H39.6165C38.7289 139.297 38.247 136.654 38.247 133.891C38.247 121.092 48.6211 110.713 61.4242 110.713C74.2225 110.713 84.6015 121.087 84.6015 133.891C84.6015 136.654 84.1195 139.297 83.2319 141.755H205.828C204.94 139.297 204.458 136.654 204.458 133.891C204.458 121.092 214.832 110.713 227.635 110.713C235.28 110.713 242.066 114.416 246.284 120.128C250.617 115.905 254.511 111.534 257.918 107.072C257.775 106.032 257.694 105.035 257.694 104.104C257.694 95.1998 240.5 77.4769 237.766 74.6566C235.032 71.8364 231.596 68.4865 231.949 67.1599C232.302 65.8381 236.077 66.5396 236.358 65.485C236.64 64.4304 227.984 62.6648 218.373 61.0757C208.762 59.4867 179.491 56.4899 160.007 57.5493C140.524 58.6086 129.591 61.343 114.073 68.5724C98.5498 75.7971 89.2923 82.0579 74.1271 88.2328Z" fill="#FFCC00"/>
<path fill-rule="evenodd" clip-rule="evenodd" d="M144.594 123.708C119.952 123.708 99.9719 124.266 99.9719 124.953C99.9719 125.64 119.947 126.198 144.594 126.198C169.241 126.198 189.217 125.64 189.217 124.953C189.217 124.266 169.236 123.708 144.594 123.708Z" fill="#FFB900"/>
<path fill-rule="evenodd" clip-rule="evenodd" d="M257.694 104.395C257.694 104.3 257.689 104.2 257.689 104.104C257.689 103.971 257.684 103.837 257.679 103.699C255.012 104.281 251.571 105.192 248.021 107.297C247.133 107.822 246.208 108.49 245.22 109.201C243.239 110.628 240.997 112.24 238.243 113.281C238.511 113.419 238.773 113.562 239.035 113.71C241.603 112.646 243.726 111.114 245.616 109.754C246.585 109.058 247.491 108.404 248.365 107.888C251.772 105.865 255.093 104.968 257.694 104.395Z" fill="#EA8E00"/>
<path fill-rule="evenodd" clip-rule="evenodd" d="M256.863 100.173C255.355 96.0783 251.982 91.1679 248.46 86.7301C244.652 86.2004 243.015 86.124 242.691 87.1691C242.261 88.5482 249.462 98.4499 253.28 99.6572C254.42 100.02 255.67 100.158 256.863 100.173Z" fill="#FF4646"/>
<path fill-rule="evenodd" clip-rule="evenodd" d="M30.5499 97.858C29.9629 98.025 29.3808 98.1968 28.8081 98.3686C18.5771 101.485 12.9272 106.519 10.5698 109.95C16.3248 112.365 30.254 108.676 33.6946 107.817C37.7984 106.791 36.8488 101.031 35.6654 99.5712C34.3674 98.3161 32.5875 97.8246 30.5499 97.858Z" fill="white"/>
<path fill-rule="evenodd" clip-rule="evenodd" d="M234.688 90.2273C231.668 93.5295 192.838 93.4007 182.311 93.4054C160.299 93.4102 110.699 97.4377 110.699 96.7601C110.699 95.5194 117.91 95.1854 134.497 93.5009C142.929 92.6419 153.785 91.7544 167.347 91.029C207.588 88.8817 239.083 85.422 234.688 90.2273Z" fill="#FFE45F"/>
<path fill-rule="evenodd" clip-rule="evenodd" d="M27.2239 100.287C25.2864 100.287 22.0988 102.353 20.1137 104.901C18.1238 107.449 18.0856 109.516 20.023 109.516C21.9604 109.516 25.1481 107.449 27.1332 104.901C29.1231 102.353 29.1613 100.287 27.2239 100.287Z" fill="#F1F1F1"/>
<path fill-rule="evenodd" clip-rule="evenodd" d="M227.63 112.498C215.82 112.498 206.243 122.075 206.243 133.886C206.243 138.476 207.689 142.728 210.151 146.212C223.55 139.011 235.308 130.555 244.981 121.379C241.097 116.001 234.774 112.498 227.63 112.498Z" fill="black"/>
<path fill-rule="evenodd" clip-rule="evenodd" d="M61.4243 112.498C49.6138 112.498 40.0365 122.075 40.0365 133.886C40.0365 145.696 49.6138 155.274 61.4243 155.274C73.2348 155.274 82.812 145.696 82.812 133.886C82.812 122.071 73.2348 112.498 61.4243 112.498Z" fill="black"/>
<path fill-rule="evenodd" clip-rule="evenodd" d="M214.737 67.0739C217.7 69.5172 221.847 81.07 222.587 85.2884C222.587 85.2884 174.533 87.66 167.347 88.5476L168.459 62.0396C168.459 62.0348 211.186 64.2585 214.737 67.0739Z" fill="white"/>
<path fill-rule="evenodd" clip-rule="evenodd" d="M214.737 67.0743C216.588 68.6013 218.898 73.6786 220.554 78.3074C216.765 79.7199 211.692 79.7867 209.111 81.5571C207.469 82.6833 207.727 84.32 208.8 85.995C198.488 86.5342 184.678 87.2834 175.674 87.8847C180.918 83.2989 177.54 78.0306 181.276 75.2963C186.473 71.4931 198.832 75.2963 202.368 71.2402C203.604 69.8229 203.99 67.3988 203.971 64.8458C209.488 65.5091 213.72 66.2678 214.737 67.0743ZM167.499 84.969L167.557 83.5947C168.125 83.5518 168.673 83.4372 169.17 83.2368C169.995 82.9028 170.682 82.3206 171.112 81.433C171.67 80.2735 171.808 78.5794 171.274 76.2221C170.267 71.7985 172.51 69.8277 175.993 69.0308C179.09 68.3245 183.161 68.6252 186.63 68.8781C189.555 69.0928 192.027 69.2742 192.81 68.8208C194.26 67.9857 193.793 66.473 192.915 64.9508C192.671 64.5261 192.385 64.0871 192.094 63.6528C192.671 63.7006 193.244 63.753 193.817 63.8008C193.912 63.9582 194.007 64.1109 194.098 64.2732C195.339 66.4301 195.921 68.6109 193.487 70.009C192.337 70.6723 189.675 70.4767 186.53 70.2476C183.151 69.9995 179.181 69.7132 176.289 70.3717C173.579 70.9873 171.828 72.5143 172.605 75.9262C173.216 78.6128 173.03 80.6075 172.343 82.0295C171.751 83.2511 170.811 84.0528 169.685 84.5109C169.007 84.7829 168.263 84.9309 167.499 84.969Z" fill="#F1F1F1"/>
<path fill-rule="evenodd" clip-rule="evenodd" d="M160.685 62.0352L155.722 89.5787C155.722 89.5787 98.4115 94.9853 97.7434 94.3172C97.0753 93.6492 101.804 80.5502 102.172 79.634C102.549 78.7178 123.812 64.9269 160.685 62.0352Z" fill="white"/>
<path fill-rule="evenodd" clip-rule="evenodd" d="M160.685 62.0352L159.373 69.3219C153.551 69.885 147.624 70.0997 146.684 72.5429C144.327 78.6987 154.291 78.4888 152.057 86.8253C151.657 88.3237 150.86 89.3831 149.819 90.1323C135.17 91.4923 98.2826 94.8517 97.7481 94.322C97.5811 94.155 97.7577 93.1958 98.1156 91.8358C109.94 87.5793 124.414 88.7102 124.414 85.284C124.414 80.6886 114.326 81.5523 115.638 76.3557C116.917 71.2927 137.594 70.7344 138.653 65.2753C145.2 63.8389 152.563 62.6746 160.685 62.0352ZM100.778 83.5327C101.069 82.6928 101.341 81.9293 101.566 81.3042C103.26 80.5216 104.959 80.6504 106.376 80.7554C107.526 80.8413 108.432 80.9129 108.728 80.3212C109.029 79.7199 108.452 78.7417 107.822 77.6775C107.588 77.2767 107.344 76.8663 107.125 76.4511C107.507 76.246 107.912 76.0312 108.342 75.8069C108.542 76.2078 108.771 76.5991 109 76.9808C109.826 78.3838 110.589 79.6674 109.955 80.932C109.248 82.3445 107.936 82.249 106.276 82.1202C104.677 82.0009 102.663 81.8482 100.778 83.5327Z" fill="#F1F1F1"/>
<path fill-rule="evenodd" clip-rule="evenodd" d="M99.6855 81.5522C99.6855 81.5522 81.118 93.0096 80.3067 94.3744C79.4955 95.7392 96.2497 94.3744 96.2497 94.3744C96.2497 94.3744 97.0562 88.5527 99.6855 81.5522Z" fill="white"/>
<path fill-rule="evenodd" clip-rule="evenodd" d="M112.532 88.2712C112.336 91.8025 109.511 92.7044 107.55 92.4705C105.588 92.2367 100.726 90.5474 100.726 88.2712C100.726 85.9998 103.551 83.4898 106.629 83.4898C109.707 83.485 112.703 85.1122 112.532 88.2712Z" fill="#FFCC00"/>
<path fill-rule="evenodd" clip-rule="evenodd" d="M221.766 92.1941C221.804 93.6447 223.412 94.3128 218.43 94.1554C213.448 93.9979 208.743 95.2529 209.134 93.7259C209.526 92.1941 212.919 91.1777 215.577 91.1777C218.235 91.1777 222.043 90.4666 221.766 92.1941Z" fill="white"/>
<path fill-rule="evenodd" clip-rule="evenodd" d="M157.206 96.1925C157.245 97.6432 158.853 98.3112 153.871 98.1538C148.889 97.9963 144.184 99.2513 144.575 97.7243C144.966 96.1925 148.359 95.1761 151.017 95.1761C153.675 95.1761 157.483 94.4698 157.206 96.1925Z" fill="white"/>
<path d="M222.587 85.2888C222.587 85.2888 226.461 100.039 224.252 104.047C222.043 108.056 216.431 108.581 208.743 115.877C201.056 123.168 201.318 132.717 199.018 133.891C196.718 135.065 158.342 134.998 158.342 134.998C158.342 134.998 99.4994 137.16 97.7434 135.523C95.9825 133.891 95.9825 116.287 95.9825 111.348C95.9825 106.409 95.7487 97.3999 97.7147 94.2838M164.612 62.0352L161.692 88.5432C160.685 92.4991 158.347 116.034 158.347 134.993" stroke="#EA8E00" stroke-width="2.8347" stroke-miterlimit="22.9256"/>
<path fill-rule="evenodd" clip-rule="evenodd" d="M12.3068 118.549C12.3068 119.06 27.8776 120.759 31.0891 119.571C34.3006 118.382 34.0572 116.092 30.6166 116.092C27.1809 116.092 23.3538 117.5 19.3835 117.772C15.4133 118.044 12.3068 118.044 12.3068 118.549Z" fill="#FFE45F"/>
<path fill-rule="evenodd" clip-rule="evenodd" d="M20.5001 125.721C20.5001 125.721 20.0945 129.329 20.3904 130.546C20.6862 131.763 21.235 132.903 22.6714 132.865C24.1077 132.827 26.3458 130.952 26.3458 128.079C26.3458 125.206 20.5001 125.721 20.5001 125.721Z" fill="white"/>
<path d="M17.8851 124.619C21.6025 124.987 25.6825 124.161 27.0425 125.979C28.2641 127.611 28.0302 129.73 25.6872 132.865" stroke="#EA8E00" stroke-width="2.126" stroke-miterlimit="22.9256"/>
<path fill-rule="evenodd" clip-rule="evenodd" d="M227.631 120.253C220.1 120.253 214.002 126.356 214.002 133.882C214.002 137.088 215.109 140.033 216.96 142.361C225.087 137.532 232.527 132.23 239.155 126.604C236.74 122.787 232.484 120.253 227.631 120.253Z" fill="#333333"/>
<path fill-rule="evenodd" clip-rule="evenodd" d="M237.78 127.754C236.406 125.483 234.287 123.708 231.763 122.772C232.87 124.743 233.505 127.019 233.505 129.439C233.505 130.059 233.462 130.665 233.381 131.262C234.884 130.107 236.349 128.938 237.78 127.754Z" fill="#666666"/>
<path fill-rule="evenodd" clip-rule="evenodd" d="M61.4243 120.253C53.8989 120.253 47.7957 126.356 47.7957 133.882C47.7957 141.407 53.8989 147.51 61.4243 147.51C68.9496 147.51 75.0529 141.407 75.0529 133.882C75.0529 126.356 68.9496 120.253 61.4243 120.253Z" fill="#333333"/>
<path fill-rule="evenodd" clip-rule="evenodd" d="M54.3379 143.392C56.3135 144.866 58.7662 145.739 61.4194 145.739C67.9665 145.739 73.2729 140.433 73.2729 133.886C73.2729 130.822 72.1133 128.036 70.2045 125.931C70.6197 127.239 70.844 128.627 70.844 130.068C70.844 137.594 64.7407 143.697 57.2154 143.697C56.2324 143.697 55.2684 143.592 54.3379 143.392Z" fill="#666666"/>
<path fill-rule="evenodd" clip-rule="evenodd" d="M33.5753 101.251C32.2917 101.251 30.1825 102.621 28.8654 104.31C27.5484 105.999 27.5198 107.369 28.8082 107.369C30.0918 107.369 32.201 105.999 33.5181 104.31C34.8351 102.621 34.859 101.251 33.5753 101.251Z" fill="#FFFF66"/>
<path fill-rule="evenodd" clip-rule="evenodd" d="M103.785 90.0371C105.04 90.7433 105.989 90.9962 104.849 94.0264C103.708 97.0566 102.997 97.529 99.6857 97.529C96.3739 97.529 96.6459 95.1764 98.6883 93.0577C100.726 90.939 102.334 89.369 103.785 90.0371Z" fill="#FFAA00"/>
<path fill-rule="evenodd" clip-rule="evenodd" d="M160.456 34.1523C162.384 34.1523 163.949 34.4625 163.949 34.849C163.949 35.2356 162.384 35.5457 160.456 35.5457C158.528 35.5457 156.963 35.2356 156.963 34.849C156.963 34.4625 158.528 34.1523 160.456 34.1523Z" fill="#CCCCCC"/>
<path fill-rule="evenodd" clip-rule="evenodd" d="M160.456 0C166.101 0 170.682 4.57628 170.682 10.2262C170.682 15.8762 160.456 34.8494 160.456 34.8494C160.456 34.8494 150.23 15.8762 150.23 10.2262C150.23 4.57628 154.806 0 160.456 0Z" fill="#FF4646"/>
<path fill-rule="evenodd" clip-rule="evenodd" d="M160.456 6.73291C162.384 6.73291 163.949 8.2981 163.949 10.226C163.949 12.1538 162.384 13.719 160.456 13.719C158.528 13.719 156.963 12.1538 156.963 10.226C156.963 8.2981 158.528 6.73291 160.456 6.73291Z" fill="#95B9FF"/>
<path fill-rule="evenodd" clip-rule="evenodd" d="M52.9397 28.7602C52.9397 28.7602 52.8061 33.2267 51.2457 34.5819C49.6853 35.9371 49.0792 28.6934 49.0792 28.6934L52.9397 28.7602Z" fill="black"/>
<path fill-rule="evenodd" clip-rule="evenodd" d="M44.4314 164.016C44.0688 164.016 43.7013 164.016 43.3339 164.016C19.3979 164.016 0 165.357 0 167.008C0 168.659 19.4027 170 43.3339 170C51.8374 170 59.7636 169.833 66.4539 169.537C78.5984 169.008 86.6678 168.072 86.6678 167.008C86.6678 165.381 67.8568 164.054 44.4314 164.016Z" fill="#E6E6E6"/>
<path fill-rule="evenodd" clip-rule="evenodd" d="M50.9833 54.9583C51.0023 53.1354 51.0596 51.093 50.0527 49.461C49.0459 47.8242 44.3407 48.855 40.7904 48.7261C37.2401 48.5973 28.8463 46.364 27.596 49.3322C26.3458 52.3051 27.596 54.4811 27.596 54.4811C27.596 54.4811 24.4847 57.0722 22.5855 60.2026C20.6863 63.3378 19.1354 69.3122 18.0904 71.3594C17.0453 73.4065 16.0384 78.4887 16.6588 81.9435C17.2791 85.3984 17.1217 89.3305 18.4387 90.6094C19.7558 91.8882 23.7451 93.2482 29.5573 93.5775C35.3695 93.902 48.1583 96.7556 48.1583 88.8151C48.1583 80.8651 53.8369 75.7353 50.9833 54.9583Z" fill="#003399"/>
<path fill-rule="evenodd" clip-rule="evenodd" d="M50.9833 54.9579C50.9976 53.4929 51.0405 51.8848 50.53 50.4627C48.75 50.4866 46.617 50.73 44.7893 50.6632C41.239 50.5343 32.8452 48.301 31.5949 51.2692C30.3447 54.2421 31.5949 56.4181 31.5949 56.4181C31.5949 56.4181 28.4837 59.0093 26.5844 62.1396C24.6852 65.2748 23.1343 71.2492 22.0893 73.2964C21.0442 75.3436 20.0373 80.4257 20.6577 83.8805C21.2637 87.2591 21.1301 91.0957 22.3565 92.4557C24.2414 92.9902 26.6751 93.4101 29.5621 93.5723C35.3743 93.8968 48.1631 96.7504 48.1631 88.8099C48.1583 80.8647 53.8369 75.7349 50.9833 54.9579Z" fill="#00258B"/>
<path fill-rule="evenodd" clip-rule="evenodd" d="M72.0656 162.708C72.0656 162.708 72.6 167.146 68.3769 167.008C64.1489 166.87 60.7418 166.311 60.7418 166.311V167.008H54.0372V163.849L72.0656 162.708Z" fill="#663300"/>
<path fill-rule="evenodd" clip-rule="evenodd" d="M55.278 100.363L61.3336 155.355H54.4238L44.1165 116.115L35.5509 157.531H28.5886L28.5409 100.363H55.278Z" fill="#000066"/>
<path fill-rule="evenodd" clip-rule="evenodd" d="M51.8518 76.8424C53.3311 81.0751 56.2897 85.1026 61.1189 84.697C65.9481 84.2914 61.1189 71.6792 61.1189 71.6792L51.8518 76.8424Z" fill="#FFCC99"/>
<path fill-rule="evenodd" clip-rule="evenodd" d="M62.5408 76.2453C61.9205 73.7496 61.1235 71.6738 61.1235 71.6738L56.7334 74.1218C56.6666 77.0041 57.4682 79.9531 60.9852 80.0963L62.5408 76.2453Z" fill="#FFBA87"/>
<path fill-rule="evenodd" clip-rule="evenodd" d="M38.3567 43.9775L37.2449 57.2578H46.4642C46.4642 57.2578 44.3598 49.952 44.3598 46.206L38.3567 43.9775Z" fill="#FFCC99"/>
<path fill-rule="evenodd" clip-rule="evenodd" d="M38.3568 43.9775L38.1229 46.7453C40.2083 48.8831 42.976 50.873 45.0947 51.6937C44.6939 49.7563 44.3551 47.6996 44.3551 46.2013L38.3568 43.9775Z" fill="#FF9966"/>
<path fill-rule="evenodd" clip-rule="evenodd" d="M51.2791 26.2837C51.2791 26.2837 54.6386 48.3014 43.7013 48.3014C32.764 48.3014 34.0525 33.265 34.0525 29.4809V26.2837H51.2791Z" fill="#FFCC99"/>
<path fill-rule="evenodd" clip-rule="evenodd" d="M32.7403 35.1829C36.1236 35.4501 38.6002 33.212 38.6002 31.3605C38.6002 29.509 37.5647 27.6909 37.5647 27.6909C37.5647 27.6909 41.0959 31.5657 46.9129 31.4655C52.7346 31.3653 55.3067 28.3495 54.9679 24.5605C54.7484 22.103 52.496 20.0845 50.4203 20.0845C48.3445 20.0845 44.7369 21.6306 42.2078 21.6306C39.6834 21.6306 36.8728 20.5521 35.0976 22.0696C33.3224 23.5823 33.4561 25.0998 33.4561 25.0998C33.4561 25.0998 29.1327 26.1782 29.1327 29.9099C29.1327 33.6463 31.9672 35.4214 32.6353 35.388L32.7403 35.1829Z" fill="black"/>
<path fill-rule="evenodd" clip-rule="evenodd" d="M42.1362 36.5342C42.5036 36.5342 42.7995 36.8444 42.7995 37.2309C42.7995 37.6174 42.5036 37.9276 42.1362 37.9276C41.7688 37.9276 41.4729 37.6174 41.4729 37.2309C41.4729 36.8444 41.7688 36.5342 42.1362 36.5342Z" fill="black"/>
<path fill-rule="evenodd" clip-rule="evenodd" d="M48.8216 36.6245C49.1891 36.6245 49.4849 36.9347 49.4849 37.3212C49.4849 37.7077 49.1891 38.0179 48.8216 38.0179C48.4542 38.0179 48.1583 37.7077 48.1583 37.3212C48.1583 36.9347 48.4542 36.6245 48.8216 36.6245Z" fill="black"/>
<path fill-rule="evenodd" clip-rule="evenodd" d="M46.302 36.7202C47.3805 38.6671 48.1058 40.2037 44.7654 40.8002C44.608 40.8193 44.4648 40.7381 44.4553 40.6188C44.441 40.4996 44.5603 40.3898 44.7177 40.3707C47.5141 39.8744 46.7172 38.6242 45.7771 36.9254C45.7103 36.8204 45.7771 36.6868 45.9202 36.6295C46.0682 36.5723 46.24 36.6152 46.302 36.7202Z" fill="#FF9966"/>
<path fill-rule="evenodd" clip-rule="evenodd" d="M26.446 59.897C27.3717 58.5179 37.5932 53.0875 37.5932 53.0875C37.5932 53.0875 39.2348 56.4947 42.389 56.4947C45.5385 56.4947 45.319 52.7344 45.319 52.7344C45.319 52.7344 56.1512 55.6166 57.1724 56.7237C58.1936 57.8308 62.6888 75.0813 62.6888 75.0813C62.6888 75.0813 59.7206 77.3766 53.9752 77.033C53.9752 77.033 55.3639 91.2247 55.8268 94.2835C56.2896 97.3424 57.2822 99.5518 57.0054 99.8953C55.1253 102.234 49.0745 103.107 46.407 103.47C39.9839 104.338 32.7259 103.274 26.928 100.282C26.1883 99.9001 28.0684 83.6135 28.6268 80.7074C28.6268 80.7074 21.6311 79.0229 21.5834 78.5648C21.5309 78.1019 25.5632 61.1186 26.446 59.897Z" fill="#FF6633"/>
<path fill-rule="evenodd" clip-rule="evenodd" d="M58.0601 76.8183C57.3491 76.9424 56.5569 77.0283 55.6884 77.0522L55.2924 62.1924C58.2366 67.1647 58.1507 74.7235 58.0601 76.8183Z" fill="#EA511E"/>
<path fill-rule="evenodd" clip-rule="evenodd" d="M36.51 53.6653L36.7629 53.5269C37.1733 54.4384 38.0227 55.4548 39.0678 56.2135C40.1224 56.977 41.3726 57.4781 42.5847 57.3301C44.9516 57.0438 45.7485 55.8079 45.9298 54.5672C46.0157 53.9707 45.9632 53.3742 45.8725 52.8779L46.1875 52.9638C46.2686 53.4553 46.3115 54.0232 46.2257 54.5958C46.03 55.932 45.1711 57.2633 42.6276 57.5735C41.3249 57.731 39.9888 57.2061 38.8721 56.3948C37.8128 55.6313 36.949 54.6006 36.51 53.6653Z" fill="#EA511E"/>
<path fill-rule="evenodd" clip-rule="evenodd" d="M59.3485 78.2022C58.6566 81.5664 59.8066 84.5297 61.5388 84.6252C63.271 84.7254 64.9221 83.9237 67.4846 79.2043C70.0472 74.4848 72.4618 62.3212 72.8578 61.6292C73.2539 60.9373 77.0476 61.5863 78.1308 60.2454C79.214 58.9045 79.9537 52.7344 78.1308 52.7344C76.3079 52.7344 70.4576 55.1633 69.193 60.002C67.9237 64.8408 62.6841 68.6822 59.3485 78.2022Z" fill="#FFCC99"/>
<path fill-rule="evenodd" clip-rule="evenodd" d="M60.3505 151.346C62.8462 152.272 61.4719 157.235 62.0827 158.161C62.6935 159.086 64.2205 159.716 66.5158 159.253C68.8111 158.79 72.6812 159.21 72.6812 161.988C72.6812 164.765 71.6981 165.772 66.5158 165.772C61.3335 165.772 54.1661 165.781 53.8511 164.803C53.5362 163.825 53.5219 155.34 54.1709 154.415C54.376 154.171 56.0987 154.668 56.7668 154.081C57.7641 153.198 58.0266 151.213 60.3505 151.346Z" fill="#FF6633"/>
<path fill-rule="evenodd" clip-rule="evenodd" d="M67.6134 159.115C66.4681 159.262 65.7333 160.179 65.2847 160.976C65.2274 161.104 65.0557 161.166 64.903 161.119C64.7503 161.071 64.6739 160.928 64.7312 160.804C65.3086 159.773 66.1532 158.8 67.6134 158.623C67.7757 158.623 67.9093 158.733 67.9093 158.866C67.9093 159 67.7804 159.115 67.6134 159.115Z" fill="black"/>
<path fill-rule="evenodd" clip-rule="evenodd" d="M65.008 159.372C64.1109 159.496 63.2281 160.112 62.7795 160.742C62.7127 160.866 62.5362 160.918 62.3835 160.866C62.2355 160.809 62.1687 160.666 62.2355 160.541C62.8225 159.716 63.8341 159.029 65.008 158.881C65.1703 158.881 65.3039 158.991 65.3039 159.124C65.3039 159.263 65.1703 159.372 65.008 159.372Z" fill="black"/>
<path fill-rule="evenodd" clip-rule="evenodd" d="M62.7508 158.853C62.3356 158.824 61.596 159.44 61.3669 159.65C61.281 159.764 61.0997 159.802 60.9565 159.731C60.8181 159.659 60.7704 159.511 60.8563 159.392C61.3287 158.944 62.097 158.285 62.9082 158.376C63.0657 158.414 63.1612 158.547 63.1182 158.676C63.0753 158.81 62.9082 158.886 62.7508 158.853Z" fill="black"/>
<path fill-rule="evenodd" clip-rule="evenodd" d="M58.5421 158.833C58.9572 158.118 59.5203 157.469 60.1359 156.905C58.2176 156.753 56.7335 156.004 58.4371 155.393C59.0813 155.164 60.217 155.469 61.3575 155.942C63.2472 154.667 65.0319 154.343 64.1968 155.703C63.9248 156.147 63.4428 156.452 62.8559 156.648C63.648 157.058 64.3256 157.473 64.674 157.726C64.779 157.831 64.7599 157.984 64.631 158.07C64.5022 158.156 64.3161 158.141 64.2111 158.036C64.0107 157.893 63.0992 157.354 62.0494 156.843C61.7249 156.896 61.3909 156.925 61.0521 156.934C60.1788 157.678 59.3867 158.49 59.1147 158.943C59.0765 159.077 58.919 159.158 58.7568 159.129C58.6041 159.096 58.5039 158.962 58.5421 158.833ZM60.7801 156.366C60.8087 156.342 60.8374 156.323 60.866 156.299C59.6587 155.803 58.5468 155.526 58.375 156.08C58.5755 156.295 59.6444 156.414 60.7801 156.366ZM61.9683 156.209L62.0208 156.233C62.9418 156.075 63.6862 155.77 63.7482 155.273C63.3283 155.321 62.665 155.703 61.9683 156.209Z" fill="black"/>
<path fill-rule="evenodd" clip-rule="evenodd" d="M51.0024 53.1354C52.9636 53.5935 54.0278 55.0203 54.9297 58.2605C55.8316 61.5006 57.2918 70.8679 56.8384 75.8402C56.3899 80.8078 54.8486 85.6609 54.8486 85.6609C54.8486 85.6609 53.8942 76.1027 53.6556 74.003C53.417 71.9034 50.9785 59.2482 49.8619 56.576C48.75 53.9037 48.0056 53.5458 48.1917 53.1402C48.373 52.7298 51.0024 53.1354 51.0024 53.1354Z" fill="#000066"/>
<path fill-rule="evenodd" clip-rule="evenodd" d="M26.7466 164.078L25.4773 164.121C25.5536 166.282 25.0001 169.332 31.7381 169.422C38.476 169.513 37.9988 167.222 38.0227 164.817L26.7466 164.078Z" fill="#663300"/>
<path fill-rule="evenodd" clip-rule="evenodd" d="M32.0626 54.677C33.9093 53.7131 34.7874 53.8276 35.0069 54.0996C35.2264 54.3716 36.8631 56.4521 37.2449 59.6971C37.6267 62.9372 38.2566 69.8851 37.9559 74.2276C37.6505 78.57 32.9168 88.2332 27.6008 88.8154V80.4788C28.0303 80.5886 28.3882 80.6697 28.6268 80.7126C29.9391 80.9274 33.1792 81.018 34.5058 80.4263C34.5058 80.4263 35.2025 75.3251 35.2025 72.7435C35.2025 70.6439 33.8234 60.9855 32.5589 59.1292C31.2943 57.2729 30.6883 56.8912 30.6406 56.581C30.5881 56.2613 30.8457 55.3928 32.0626 54.677Z" fill="#000066"/>
<path fill-rule="evenodd" clip-rule="evenodd" d="M31.2799 36.6911C31.2799 38.1609 32.4777 39.182 34.0047 39.182C35.5317 39.182 36.0423 37.1253 36.0423 36.6577C36.0423 36.19 35.3743 34.3242 33.6611 34.3242C31.948 34.3242 31.1893 35.7176 31.2799 36.6911Z" fill="#FFCC99"/>
<path fill-rule="evenodd" clip-rule="evenodd" d="M33.3462 35.3216C34.2338 35.2166 35.2216 35.7511 35.1214 36.7866C35.1023 36.9631 33.957 36.9679 34.2052 37.2829C34.501 37.6598 35.0164 37.5024 35.1691 37.3735C35.0975 37.7601 34.0429 38.0511 33.8043 37.3735C33.6898 37.0443 33.9379 36.6196 34.6299 36.6052C34.4867 35.8179 33.957 35.5793 33.4607 35.6509C32.4491 35.8036 32.3393 36.276 32.2725 36.5718C32.1055 36.1853 32.3632 35.4361 33.3462 35.3216Z" fill="#FF9966"/>
<path fill-rule="evenodd" clip-rule="evenodd" d="M23.4349 79.29C22.8575 81.1606 22.2276 84.1192 22.953 86.6245C24.1173 90.652 31.9385 110.985 31.9385 110.985L35.1929 108.685C35.1929 108.685 31.0127 87.4596 30.7789 85.6224C30.7789 85.6224 31.9337 83.6993 32.6925 80.798C31.2418 80.9316 29.5144 80.6453 28.6172 80.4973C27.7249 80.3494 25.0049 79.7577 23.4349 79.29Z" fill="#FFCC99"/>
<path fill-rule="evenodd" clip-rule="evenodd" d="M71.3212 44.6608L77.9494 45.1618C78.4409 45.2 78.8036 45.5579 78.7558 45.9635L77.4102 58.0556C77.3672 58.4612 76.9282 58.757 76.4367 58.7236L69.8085 58.2226C69.317 58.1844 68.9543 57.8265 69.002 57.4209L70.3477 45.3288C70.3954 44.9232 70.8297 44.6274 71.3212 44.6608Z" fill="#FF4646"/>
<path fill-rule="evenodd" clip-rule="evenodd" d="M77.143 45.7914C77.52 45.8201 77.8015 46.1016 77.7681 46.4118L77.5677 48.206C77.5343 48.5162 77.1955 48.75 76.8137 48.7214C76.4367 48.6928 76.1552 48.4112 76.1886 48.101L76.389 46.3068C76.4272 45.9966 76.766 45.7628 77.143 45.7914Z" fill="black"/>
<path fill-rule="evenodd" clip-rule="evenodd" d="M77.1048 46.1208C77.3482 46.1399 77.5295 46.3164 77.5056 46.5169C77.4818 46.7173 77.267 46.8652 77.0237 46.8461C76.7803 46.827 76.599 46.6505 76.6228 46.4501C76.6467 46.2496 76.8614 46.1017 77.1048 46.1208Z" fill="#333333"/>
<path fill-rule="evenodd" clip-rule="evenodd" d="M76.9044 47.9387C77.0475 47.9483 77.1525 48.0532 77.1429 48.1725C77.1286 48.2918 76.9998 48.3777 76.8566 48.3682C76.7135 48.3586 76.6085 48.2537 76.618 48.1344C76.6323 48.0151 76.7612 47.9292 76.9044 47.9387Z" fill="white"/>
<path fill-rule="evenodd" clip-rule="evenodd" d="M77.0046 47.0319C77.2479 47.051 77.4293 47.2276 77.4054 47.428C77.3816 47.6284 77.1668 47.7763 76.9235 47.7573C76.6801 47.7382 76.4988 47.5616 76.5226 47.3612C76.5465 47.1608 76.7612 47.0128 77.0046 47.0319Z" fill="#333333"/>
<path fill-rule="evenodd" clip-rule="evenodd" d="M32.597 155.03C37.4024 155.221 35.8897 159.234 35.737 160.967C35.5843 162.704 37.9464 163.276 38.0227 164.813C38.0991 166.349 36.7057 168.182 31.8812 168.182C27.0568 168.182 25.4678 166.43 25.4678 163.82C25.4678 161.21 28.0732 160.967 28.0732 159.368C28.078 157.769 26.6989 155.135 32.597 155.03Z" fill="#FF6633"/>
<path fill-rule="evenodd" clip-rule="evenodd" d="M29.3998 163.18C30.4688 162.493 32.2057 162.627 33.2699 163.242C33.3844 163.338 33.3844 163.495 33.2699 163.591C33.1553 163.686 32.9645 163.686 32.8499 163.591C32.0864 163.166 30.5737 163.052 29.8055 163.538C29.6862 163.629 29.4953 163.624 29.3855 163.524C29.2758 163.429 29.2805 163.271 29.3998 163.18Z" fill="black"/>
<path fill-rule="evenodd" clip-rule="evenodd" d="M29.7768 161.572C30.6739 161.128 32.158 161.042 32.9835 161.658C33.0933 161.758 33.0838 161.916 32.9597 162.006C32.8356 162.097 32.6495 162.087 32.5398 161.987C32.0244 161.61 30.7217 161.677 30.1681 161.944C30.044 162.035 29.8579 162.021 29.7482 161.92C29.6384 161.815 29.6527 161.663 29.7768 161.572Z" fill="black"/>
<path fill-rule="evenodd" clip-rule="evenodd" d="M29.8198 160.28C30.4545 159.554 32.3537 159.487 33.1363 160.256C33.227 160.37 33.1888 160.523 33.0552 160.595C32.9168 160.671 32.7355 160.637 32.64 160.528C32.1485 160.046 30.6597 160.17 30.3447 160.504C30.2684 160.623 30.087 160.671 29.9439 160.609C29.8007 160.547 29.7435 160.399 29.8198 160.28Z" fill="black"/>
<path fill-rule="evenodd" clip-rule="evenodd" d="M28.5552 160.446C29.271 159.587 30.044 158.929 30.8075 158.427C29.2376 157.998 28.1162 157.168 28.9274 156.576C29.6432 156.051 30.7693 156.943 31.781 157.869C34.3149 156.619 36.3716 157.115 35.2263 158.051C34.606 158.556 33.6707 158.738 32.702 158.714C33.036 159.01 33.3319 159.248 33.5609 159.358C34.3674 159.74 34.6012 159.778 35.4697 160.04C35.6272 160.079 35.7131 160.217 35.6653 160.346C35.6176 160.475 35.4506 160.546 35.2931 160.508L34.2624 160.198C33.2364 159.83 32.4395 159.224 31.7762 158.637C30.6166 159.339 29.4905 160.184 29.0896 160.651C29.0228 160.775 28.8463 160.828 28.6936 160.771C28.5552 160.713 28.4884 160.57 28.5552 160.446ZM31.1129 158.017C30.4592 157.402 29.9152 156.924 29.3378 156.934C29.3234 156.943 29.3044 156.958 29.2996 156.967C29.1755 157.402 30.0297 157.798 31.1129 158.017ZM32.554 158.194C33.6086 158.241 34.5821 158.093 34.8637 157.645C34.668 157.239 33.6707 157.592 32.554 158.194Z" fill="black"/>
<path fill-rule="evenodd" clip-rule="evenodd" d="M31.3993 80.8651C32.0578 79.6626 34.4581 75.5587 34.7969 68.7349C35.045 70.5243 35.193 72.0418 35.193 72.7337C35.193 75.3154 34.4963 80.4165 34.4963 80.4165C33.8091 80.7219 32.5875 80.846 31.3993 80.8651Z" fill="#EA511E"/>
<path fill-rule="evenodd" clip-rule="evenodd" d="M36.5625 107.645C34.8256 109.687 33.3797 111.195 30.2779 111.524C30.1157 111.524 29.9821 111.415 29.9821 111.276C29.9821 111.143 30.1157 111.028 30.2779 111.028C33.0838 110.732 34.4915 109.229 36.0424 107.406C36.1235 107.287 36.3049 107.244 36.448 107.311C36.5864 107.378 36.6389 107.526 36.5625 107.645Z" fill="black"/>
<path fill-rule="evenodd" clip-rule="evenodd" d="M78.5555 52.8821C78.5555 52.8821 75.5062 50.2814 74.8954 50.8875C74.2846 51.4983 77.5486 53.722 77.5486 53.722C77.5486 53.722 73.9935 51.7941 73.8933 52.6054C73.7931 53.4166 77.3482 55.5496 77.3482 55.5496C77.3482 55.5496 74.0985 54.5332 73.8933 55.4494C73.6881 56.3656 76.9378 56.8715 76.9378 56.8715C76.9378 56.8715 73.5879 56.8715 73.3827 57.3773C73.1775 57.8831 77.749 58.9997 77.749 58.9997L78.5555 52.8821Z" fill="#FFCC99"/>
<path d="M40.6568 34.997C40.7093 34.935 40.7666 34.8777 40.8286 34.8204C40.862 34.7918 40.8954 34.7632 40.9241 34.7345C40.967 34.7011 40.9288 34.7393 40.9097 34.7441C40.9241 34.7393 40.9432 34.7202 40.9575 34.7107C41.0243 34.6629 41.0911 34.62 41.1627 34.5771C41.2008 34.558 41.239 34.5341 41.2772 34.515C41.2963 34.5055 41.3106 34.5007 41.3297 34.4912C41.3392 34.4864 41.4156 34.4482 41.3583 34.4768C41.3058 34.5007 41.3631 34.4768 41.3774 34.4721C41.3965 34.4673 41.4156 34.4578 41.4299 34.453C41.4728 34.4387 41.511 34.4244 41.554 34.4148C41.6303 34.391 41.7114 34.3719 41.7926 34.3576C41.8116 34.3528 41.8307 34.3528 41.8498 34.348C41.9071 34.3385 41.7687 34.3575 41.826 34.3528C41.8689 34.348 41.9119 34.3432 41.9548 34.3432C42.0407 34.3385 42.1266 34.3385 42.2125 34.348C42.4272 34.3623 42.6324 34.1524 42.6229 33.9376C42.6133 33.7038 42.4415 33.5463 42.2125 33.5272C41.4203 33.4747 40.5996 33.8183 40.0747 34.4148C39.9363 34.5771 39.9029 34.8347 40.0747 34.9922C40.2369 35.1401 40.5089 35.1688 40.6568 34.997Z" fill="black"/>
<path d="M47.9531 35.6842C48.0342 35.6604 48.1153 35.6365 48.1965 35.6222C48.2203 35.6174 48.3492 35.5793 48.2442 35.6127C48.2824 35.6031 48.3301 35.6031 48.3682 35.6031C48.4541 35.5984 48.5353 35.5984 48.6212 35.6031C48.6641 35.6031 48.7071 35.6079 48.7452 35.6127C48.8311 35.6174 48.6689 35.5983 48.7786 35.6174C48.855 35.6318 48.9313 35.6461 49.0077 35.6699C49.084 35.689 49.1795 35.7081 49.2463 35.7511C49.1556 35.6938 49.2701 35.7654 49.294 35.7749C49.3322 35.794 49.3704 35.8131 49.4038 35.8322C49.4753 35.8751 49.5469 35.9181 49.6137 35.9658C49.7903 36.0899 50.0766 36.004 50.172 35.8179C50.2818 35.6079 50.2102 35.3932 50.0241 35.2595C49.3704 34.7967 48.4971 34.6678 47.7336 34.8969C47.5284 34.9589 47.3805 35.1832 47.4473 35.3979C47.5188 35.6079 47.7384 35.7511 47.9531 35.6842Z" fill="black"/>
<path d="M42.4272 42.0982C43.6297 43.1003 45.3905 43.2721 46.7505 42.4752C47.2039 42.2079 46.7935 41.5017 46.3401 41.7689C45.3189 42.3702 43.9255 42.2843 43.0093 41.5208C42.8423 41.3776 42.5989 41.3538 42.4319 41.5208C42.2792 41.6639 42.2554 41.955 42.4272 42.0982Z" fill="black"/>
</svg>
